<?xml version="1.0" encoding="iso-8859-1"?>
<!-- Generator: Adobe Illustrator 19.0.0, SVG Export Plug-In . SVG Version: 6.00 Build 0)  -->
<svg version="1.1" id="Layer_1" xmlns="http://www.w3.org/2000/svg" xmlns:xlink="http://www.w3.org/1999/xlink" x="0px" y="0px"
	 viewBox="0 0 512 512" style="enable-background:new 0 0 512 512;" xml:space="preserve">
<path style="fill:#A0D468;" d="M480,211.391C480,82.938,379.781,0.125,256.094,0l0,0c-0.031,0-0.062,0-0.094,0
	c-0.062,0-0.094,0-0.125,0l0,0C132.219,0.125,32,82.938,32,211.391C32,373.984,216.938,511.547,255.875,512h0.219
	C295.031,511.547,480,373.984,480,211.391z"/>
<g>
	<path style="fill:#FFFFFF;" d="M303.656,298.672c-5.312,0-10.688-0.391-15.969-1.141c-3.375-0.484-6.719-1.109-10.031-1.875
		c-0.438-7.516-0.125-15.078,0.938-22.562c3.844-26.984,17.312-51.625,37.938-69.375c20.438-17.594,46.469-27.281,73.281-27.281
		c5.281,0,10.656,0.375,15.969,1.125c3.344,0.484,6.688,1.109,10,1.891c0.438,7.5,0.125,15.062-0.938,22.547
		c-3.812,26.984-17.281,51.625-37.906,69.375C356.5,288.969,330.469,298.672,303.656,298.672L303.656,298.672z"/>
	<path style="fill:#FFFFFF;" d="M208.312,298.672c-26.812,0-52.812-9.703-73.25-27.297c-20.625-17.75-34.094-42.391-37.938-69.375
		c-1.062-7.484-1.375-15.047-0.938-22.547c3.312-0.781,6.656-1.406,10.031-1.891c5.281-0.75,10.656-1.125,15.969-1.125
		c26.812,0,52.812,9.688,73.25,27.281c20.625,17.75,34.094,42.391,37.938,69.375c1.062,7.484,1.375,15.047,0.938,22.562
		c-3.312,0.766-6.656,1.391-10,1.875C219,298.281,213.625,298.672,208.312,298.672z"/>
</g>
<g>
	<path style="fill:#8CC152;" d="M425.719,171.078c-5.938-1.797-12.094-3.172-18.438-4.078c-5.875-0.828-11.719-1.234-17.469-1.234
		c-60.344,0-113.031,44.375-121.781,105.828c-1.562,11.016-1.594,21.891-0.312,32.422c5.969,1.797,12.125,3.172,18.469,4.078
		c5.875,0.828,11.719,1.234,17.469,1.234c60.344,0,113.031-44.375,121.75-105.828C426.969,192.484,427.031,181.609,425.719,171.078z
		 M404.281,200.5c-3.469,24.422-15.656,46.719-34.312,62.797C351.469,279.219,327.906,288,303.656,288
		c-4.812,0-9.688-0.344-14.469-1.031c-0.344-0.047-0.688-0.094-1.031-0.141c0.094-4.094,0.438-8.172,1-12.234
		c3.469-24.422,15.656-46.719,34.344-62.797c18.5-15.922,42.031-24.703,66.312-24.703c4.781,0,9.656,0.344,14.469,1.031
		c0.344,0.047,0.656,0.094,1,0.156C405.188,192.359,404.875,196.438,404.281,200.5z"/>
	<path style="fill:#8CC152;" d="M122.188,165.766c-5.781,0-11.594,0.406-17.469,1.234c-6.344,0.906-12.531,2.281-18.469,4.078
		c-1.281,10.531-1.25,21.406,0.312,32.422c8.75,61.453,61.438,105.828,121.75,105.828c5.781,0,11.625-0.406,17.5-1.234
		c6.344-0.906,12.5-2.281,18.438-4.078c1.312-10.531,1.25-21.406-0.312-32.422C235.219,210.141,182.5,165.766,122.188,165.766z
		 M222.812,286.969c-4.812,0.688-9.688,1.031-14.5,1.031c-24.25,0-47.781-8.781-66.312-24.703
		c-18.656-16.078-30.844-38.375-34.312-62.797c-0.562-4.062-0.906-8.141-1-12.219c0.344-0.062,0.688-0.109,1.031-0.156
		c4.781-0.688,9.656-1.031,14.469-1.031c24.25,0,47.812,8.781,66.312,24.703c18.656,16.078,30.844,38.375,34.312,62.797
		c0.594,4.062,0.906,8.141,1,12.234C223.469,286.875,223.125,286.922,222.812,286.969z"/>
</g>
<path style="fill:#434A54;" d="M277.375,384h-42.781c-5.875,0-10.656,4.781-10.656,10.672s4.781,10.656,10.656,10.656h42.781
	c5.906,0,10.688-4.766,10.688-10.656S283.281,384,277.375,384z"/>
<g>
</g>
<g>
</g>
<g>
</g>
<g>
</g>
<g>
</g>
<g>
</g>
<g>
</g>
<g>
</g>
<g>
</g>
<g>
</g>
<g>
</g>
<g>
</g>
<g>
</g>
<g>
</g>
<g>
</g>
</svg>
