<?xml version="1.0" encoding="utf-8"?>
<svg viewBox="0 0 512 512" xmlns="http://www.w3.org/2000/svg">
  <line style="stroke: darkblue;" x1="25" y1="120" x2="400" y2="120" stroke-width="40"/>
  <line style="stroke: darkblue;" x1="25" y1="392" x2="400" y2="392" stroke-width="40"/>
  <line style="stroke: darkblue;" x1="341" y1="20" x2="471" y2="256" stroke-width="40"/>
  <line style="stroke: darkblue;" x1="471" y1="256" x2="341" y2="492" stroke-width="40"/>
  <circle style="fill: darkblue;" cx="471" cy="256" r="20"/>
  <circle style="fill: darkblue;" cx="25" cy="120" r="20"/>
  <circle style="fill: darkblue;" cx="25" cy="392" r="20"/>
  <circle style="fill: darkblue;" cx="341" cy="20" r="20"/>
  <circle style="fill: darkblue;" cx="341" cy="492" r="20"/>
  <polygon style="fill: darkblue;" points="5 392 390 392 471 256 389 120 5 120"/>
  <path d="M 53.451 176.728 L 54.691 167.728 L 56.421 160.528 L 58.941 160.528 L 60.791 167.728 L 62.071 176.728 L 62.141 176.728 L 62.721 168.448 L 65.471 153.328 L 68.661 153.328 L 63.761 180.328 L 60.511 180.328 L 58.781 172.228 L 57.721 163.228 L 57.641 163.228 L 56.601 172.228 L 54.841 180.328 L 51.631 180.328 L 46.661 153.328 L 49.801 152.968 L 52.821 168.448 L 53.381 176.728 L 53.451 176.728 ZM 76.851 176.728 L 78.091 167.728 L 79.821 160.528 L 82.341 160.528 L 84.191 167.728 L 85.471 176.728 L 85.541 176.728 L 86.121 168.448 L 88.871 153.328 L 92.061 153.328 L 87.161 180.328 L 83.911 180.328 L 82.181 172.228 L 81.121 163.228 L 81.041 163.228 L 80.001 172.228 L 78.241 180.328 L 75.031 180.328 L 70.061 153.328 L 73.201 152.968 L 76.221 168.448 L 76.781 176.728 L 76.851 176.728 ZM 100.251 176.728 L 101.491 167.728 L 103.221 160.528 L 105.741 160.528 L 107.591 167.728 L 108.871 176.728 L 108.941 176.728 L 109.521 168.448 L 112.271 153.328 L 115.461 153.328 L 110.561 180.328 L 107.311 180.328 L 105.581 172.228 L 104.521 163.228 L 104.441 163.228 L 103.401 172.228 L 101.641 180.328 L 98.431 180.328 L 93.461 153.328 L 96.601 152.968 L 99.621 168.448 L 100.181 176.728 L 100.251 176.728 Z" transform="matrix(6.169713020324707, 0, 0, 8.588724136352539, -277.8621826171875, -1170.0789794921875)" style="fill: rgb(255, 255, 255); white-space: pre;"/>
</svg>